# xmcd
#
# Track frame offsets: 
#        182
#        13602
#        28027
#        41277
#        59462
#        73147
#        86075
#        98900
#        113265
#        130395
#        143452
#        159355
#
# Disc length: 2270 seconds
#
# Revision: 3
# Processed by: cddbd v1.5.2PL0 Copyright (c) Steve Scherf et al.
# Submitted via: ExactAudioCopy v1.0b3
#
DISCID=9408dc0c
DTITLE=Paco de Lucía - 12 Canciones de Garcia Lorca para Guitara
DYEAR=1965
DGENRE=Flamenco
TTITLE0=Zorongo Gitano
TTITLE1=Sevillanas del Siglo XVIII
TTITLE2=Las Morillas de Jaén
TTITLE3=Anda Jaleo
TTITLE4=Los Mozos de Monleón
TTITLE5=Los Reyes de la Baraja
TTITLE6=Los Cuatro Muleros
TTITLE7=Nana de Sevilla
TTITLE8=Café de Chinitas
TTITLE9=El Vito
TTITLE10=Los Peregrinitos
TTITLE11=Las Tres Hojas
EXTD=YEAR: 1965
EXTT0=
EXTT1=
EXTT2=
EXTT3=
EXTT4=
EXTT5=
EXTT6=
EXTT7=
EXTT8=
EXTT9=
EXTT10=
EXTT11=
PLAYORDER=
